
<svg height="100%" style="fill-rule:evenodd;clip-rule:evenodd;stroke-linecap:round;stroke-linejoin:round;" xmlns:xlink="http://www.w3.org/1999/xlink" xmlns="http://www.w3.org/2000/svg" xml:space="preserve" xmlns:vectornator="http://vectornator.io" version="1.1" viewBox="0 0 1024 1024" width="100px" height="100px">
<g id="Layer 1" vectornator:layerName="Layer 1">
<path stroke="#cd4edb" vectornator:shadowColor="#000000" vectornator:shadowOffset="38.75" stroke-width="21.25" fill="#cd4edb" stroke-linecap="round" vectornator:shadowAngle="-0.474809" stroke-linejoin="miter" opacity="1" vectornator:shadowRadius="7.41071" d="M232.078+420.164L230.235+567.791" vectornator:shadowOpacity="0"/>
<path stroke="#ffffff" vectornator:shadowColor="#000000" vectornator:shadowOffset="38.75" stroke-width="26.88" fill="#cd4edb" stroke-linecap="round" vectornator:shadowAngle="-0.474809" stroke-linejoin="miter" opacity="1" vectornator:shadowRadius="7.41071" d="M232.078+420.164L230.232+569.606" vectornator:shadowOpacity="0"/>
<g vectornator:shadowOffset="38.75" vectornator:shadowOpacity="0" vectornator:shadowAngle="-0.474809" vectornator:shadowColor="#000000" opacity="1" vectornator:shadowRadius="7.41071">
<path d="M1000.47+118.664L889.065+217.821" fill="#cd4edb"/>
<g>
<path stroke-linecap="round" stroke-width="18.73" stroke="#ffffff" d="M951.488+162.26C949.263+164.24+889.065+217.821+889.065+217.821" fill="none" stroke-linejoin="miter"/>
<path d="M939.246+173.156L946.105+254.812L1000.46+118.675L858.936+156.877L939.246+173.156Z" fill="#ffffff"/>
</g>
</g>
<path stroke="#ffffff" vectornator:shadowColor="#000000" vectornator:shadowOffset="38.75" stroke-width="26.88" fill="#cd4edb" stroke-linecap="round" vectornator:shadowAngle="-0.474809" stroke-linejoin="miter" opacity="1" vectornator:shadowRadius="7.41071" d="M273.012+530.272L186.717+530.983" vectornator:shadowOpacity="0"/>
<path stroke="#ffffff" vectornator:shadowColor="#000000" vectornator:shadowOffset="38.75" stroke-width="1.11" fill="#ffffff" stroke-linecap="butt" vectornator:shadowAngle="-0.474809" stroke-linejoin="round" opacity="1" vectornator:shadowRadius="7.41071" d="M232.348+471.809C146.035+471.655+76.1865+402.916+76.3368+318.276C76.4871+233.637+146.579+165.148+232.892+165.303C319.205+165.457+389.053+234.196+388.903+318.836C388.752+403.475+318.66+471.964+232.348+471.809Z" vectornator:shadowOpacity="0"/>
<path stroke="#ffffff" vectornator:shadowColor="#000000" vectornator:shadowOffset="38.75" stroke-width="1.11" fill="#ffffff" stroke-linecap="butt" vectornator:shadowAngle="-0.474809" stroke-linejoin="round" opacity="1" vectornator:shadowRadius="7.41071" d="M781.81+475.505C739.263+475.429+700.716+458.687+672.583+431.59C643.644+403.718+625.723+364.889+625.8+321.972C625.95+237.333+696.042+168.844+782.355+168.998C868.667+169.153+938.516+237.892+938.365+322.531C938.215+407.171+868.123+475.659+781.81+475.505Z" vectornator:shadowOpacity="0"/>
<path stroke="#1693c1" vectornator:shadowColor="#000000" vectornator:shadowOffset="38.75" stroke-width="27.11" fill="none" stroke-linecap="butt" vectornator:shadowAngle="-0.474809" stroke-linejoin="round" opacity="1" vectornator:shadowRadius="3.125" d="M509.89+474.697C186.564+613.868+511.134+735.902+511.134+735.902" vectornator:shadowOpacity="0"/>
<path stroke="#ffffff" vectornator:shadowColor="#000000" vectornator:shadowOffset="38.75" stroke-width="42.25" fill="none" stroke-linecap="butt" vectornator:shadowAngle="-0.474809" stroke-linejoin="round" opacity="1" vectornator:shadowRadius="3.125" d="M509.89+474.697C186.564+613.868+511.134+735.902+511.134+735.902" vectornator:shadowOpacity="0"/>
<path stroke="#ffffff" vectornator:shadowColor="#000000" vectornator:shadowOffset="38.75" stroke-width="42.25" fill="none" stroke-linecap="butt" vectornator:shadowAngle="-0.474809" stroke-linejoin="round" opacity="1" vectornator:shadowRadius="3.125" d="M649.653+873.002C667.414+786.321+505.554+724.179+505.554+724.179" vectornator:shadowOpacity="0"/>
<path stroke="#ffffff" vectornator:shadowColor="#000000" vectornator:shadowOffset="38.75" stroke-width="42.25" fill="#1693c1" stroke-linecap="butt" vectornator:shadowAngle="-0.474809" stroke-linejoin="round" opacity="1" vectornator:shadowRadius="7.41071" d="M489.312+484.263L596.901+432.411L704.49+380.559" vectornator:shadowOpacity="0"/>
<path stroke="#ffffff" vectornator:shadowColor="#000000" vectornator:shadowOffset="38.75" stroke-width="42.25" fill="#c841d7" stroke-linecap="butt" vectornator:shadowAngle="-0.474809" stroke-linejoin="round" opacity="1" vectornator:shadowRadius="7.41071" d="M308.492+376.818L523.3+481.291" vectornator:shadowOpacity="0"/>
<path stroke="#ffffff" vectornator:shadowColor="#000000" vectornator:shadowOffset="38.75" stroke-width="42.25" fill="none" stroke-linecap="butt" vectornator:shadowAngle="-0.474809" stroke-linejoin="round" opacity="1" vectornator:shadowRadius="3.125" d="M502.958+733.284C826.284+594.113+501.715+472.079+501.715+472.079" vectornator:shadowOpacity="0"/>
<path stroke="#ffffff" vectornator:shadowColor="#000000" vectornator:shadowOffset="38.75" stroke-width="42.25" fill="none" stroke-linecap="butt" vectornator:shadowAngle="-0.474809" stroke-linejoin="round" opacity="1" vectornator:shadowRadius="3.125" d="M507.264+730.853C391.004+780.896+358.513+828.722+364.581+869.457" vectornator:shadowOpacity="0"/>
<path stroke="#1693c1" vectornator:shadowColor="#000000" vectornator:shadowOffset="38.75" stroke-width="27.34" fill="#1693c1" stroke-linecap="butt" vectornator:shadowAngle="-0.474809" stroke-linejoin="round" opacity="1" vectornator:shadowRadius="7.41071" d="M617.836+415.688" vectornator:shadowOpacity="0"/>
<path stroke="#1693c1" vectornator:shadowColor="#000000" vectornator:shadowOffset="38.75" stroke-width="1.34" fill="#1693c1" stroke-linecap="butt" vectornator:shadowAngle="-0.474809" stroke-linejoin="round" opacity="1" vectornator:shadowRadius="7.41071" d="M610.662+392.334" vectornator:shadowOpacity="0"/>
<path stroke="#ffffff" vectornator:shadowColor="#000000" vectornator:shadowOffset="38.75" stroke-width="1.34" fill="#ffffff" stroke-linecap="butt" vectornator:shadowAngle="-0.474809" stroke-linejoin="round" opacity="1" vectornator:shadowRadius="7.41071" d="M591.253+412.811C624.454+382.598+625.8+321.972+625.8+321.972C625.8+321.972+729.88+466.507+719.437+462.534C650.554+436.328+614.651+446.799+614.651+446.799" vectornator:shadowOpacity="0"/>
<path stroke="#ffffff" vectornator:shadowColor="#000000" vectornator:shadowOffset="38.75" stroke-width="1.34" fill="#ffffff" stroke-linecap="butt" vectornator:shadowAngle="-0.474809" stroke-linejoin="round" opacity="1" vectornator:shadowRadius="7.41071" d="M419.868+408.903C386.775+378.572+385.645+317.942+385.645+317.942C385.645+317.942+281.052+462.103+291.509+458.168C360.485+432.208+396.35+442.807+396.35+442.807" vectornator:shadowOpacity="0"/>
<g vectornator:shadowOffset="38.75" vectornator:shadowOpacity="0" vectornator:shadowAngle="-0.474809" vectornator:shadowColor="#000000" opacity="1" vectornator:shadowRadius="7.41071">
<path d="M505.81+535.191L414.236+535.59" fill="#cd4edb"/>
<g>
<path stroke-linecap="round" stroke-width="7.16" stroke="#ffffff" d="M500.435+535.214C492.326+535.249+414.236+535.59+414.236+535.59" fill="none" stroke-linejoin="miter"/>
<path d="M498.739+556.702L505.899+556.67L505.711+513.711L498.551+513.742L498.739+556.702Z" fill="#ffffff"/>
</g>
</g>
<g vectornator:shadowOffset="38.75" vectornator:shadowOpacity="0" vectornator:shadowAngle="-0.474809" vectornator:shadowColor="#000000" opacity="1" vectornator:shadowRadius="7.41071">
<path d="M506.072+595.713L387.244+596.064" fill="#cd4edb"/>
<g>
<path stroke-linecap="round" stroke-width="7.16" stroke="#ffffff" d="M500.698+595.729C490.82+595.759+387.244+596.064+387.244+596.064" fill="none" stroke-linejoin="miter"/>
<path d="M498.971+617.215L506.131+617.193L506.004+574.234L498.844+574.255L498.971+617.215Z" fill="#ffffff"/>
</g>
</g>
<g vectornator:shadowOffset="38.75" vectornator:shadowOpacity="0" vectornator:shadowAngle="-0.474809" vectornator:shadowColor="#000000" opacity="1" vectornator:shadowRadius="7.41071">
<g>
<path stroke-linecap="round" stroke-width="7.16" stroke="#ffffff" d="M500.997+666.761C492.888+666.796+414.798+667.137+414.798+667.137" fill="none" stroke-linejoin="miter"/>
<path d="M499.301+688.249L506.461+688.217L506.273+645.258L499.113+645.289L499.301+688.249Z" fill="#ffffff"/>
</g>
</g>
<g vectornator:shadowOffset="38.75" vectornator:shadowOpacity="0" vectornator:shadowAngle="-0.474809" vectornator:shadowColor="#000000" opacity="1" vectornator:shadowRadius="7.41071">
<path d="M507.227+535.256L598.8+535.857" fill="#cd4edb"/>
<g>
<path stroke-linecap="round" stroke-width="7.16" stroke="#ffffff" d="M512.602+535.292C520.711+535.345+598.8+535.857+598.8+535.857" fill="none" stroke-linejoin="miter"/>
<path d="M514.533+513.824L507.373+513.777L507.091+556.736L514.251+556.783L514.533+513.824Z" fill="#ffffff"/>
</g>
</g>
<g vectornator:shadowOffset="38.75" vectornator:shadowOpacity="0" vectornator:shadowAngle="-0.474809" vectornator:shadowColor="#000000" opacity="1" vectornator:shadowRadius="7.41071">
<path d="M507.479+595.779L625.715+596.428" fill="#cd4edb"/>
<g>
<path stroke-linecap="round" stroke-width="7.16" stroke="#ffffff" d="M512.85+595.809C522.69+595.863+625.715+596.428+625.715+596.428" fill="none" stroke-linejoin="miter"/>
<path d="M514.758+574.339L507.598+574.3L507.363+617.259L514.523+617.298L514.758+574.339Z" fill="#ffffff"/>
</g>
</g>
<g vectornator:shadowOffset="38.75" vectornator:shadowOpacity="0" vectornator:shadowAngle="-0.474809" vectornator:shadowColor="#000000" opacity="1" vectornator:shadowRadius="7.41071">
<g>
<path stroke-linecap="round" stroke-width="7.16" stroke="#ffffff" d="M513.164+666.838C521.273+666.892+599.362+667.404+599.362+667.404" fill="none" stroke-linejoin="miter"/>
<path d="M515.095+645.371L507.935+645.324L507.653+688.283L514.813+688.33L515.095+645.371Z" fill="#ffffff"/>
</g>
</g>
<g vectornator:shadowOffset="38.75" vectornator:shadowOpacity="0" vectornator:shadowAngle="-0.474809" vectornator:shadowColor="#000000" opacity="1" vectornator:shadowRadius="7.41071">
<g>
<path stroke-linecap="round" stroke-width="7.16" stroke="#ffffff" d="M515.225+859.2C525.693+859.103+638.516+858.054+638.516+858.054" fill="none" stroke-linejoin="miter"/>
<path d="M516.815+837.705L509.655+837.771L510.055+880.729L517.214+880.663L516.815+837.705Z" fill="#ffffff"/>
</g>
</g>
<g vectornator:shadowOffset="38.75" vectornator:shadowOpacity="0" vectornator:shadowAngle="-0.474809" vectornator:shadowColor="#000000" opacity="1" vectornator:shadowRadius="7.41071">
<g>
<path stroke-linecap="round" stroke-width="7.16" stroke="#ffffff" d="M513.402+781.772C521.51+781.66+599.593+780.583+599.593+780.583" fill="none" stroke-linejoin="miter"/>
<path d="M514.896+760.269L507.736+760.368L508.328+803.324L515.487+803.225L514.896+760.269Z" fill="#ffffff"/>
</g>
</g>
<g vectornator:shadowOffset="38.75" vectornator:shadowOpacity="0" vectornator:shadowAngle="-0.474809" vectornator:shadowColor="#000000" opacity="1" vectornator:shadowRadius="7.41071">
<g>
<path stroke-linecap="round" stroke-width="7.16" stroke="#ffffff" d="M503.054+859.206C492.375+859.221+376.128+859.387+376.128+859.387" fill="none" stroke-linejoin="miter"/>
<path d="M501.295+880.688L508.455+880.678L508.393+837.718L501.233+837.728L501.295+880.688Z" fill="#ffffff"/>
</g>
</g>
<g vectornator:shadowOffset="38.75" vectornator:shadowOpacity="0" vectornator:shadowAngle="-0.474809" vectornator:shadowColor="#000000" opacity="1" vectornator:shadowRadius="7.41071">
<g>
<path stroke-linecap="round" stroke-width="7.16" stroke="#ffffff" d="M501.234+781.809C493.125+781.832+415.035+782.055+415.035+782.055" fill="none" stroke-linejoin="miter"/>
<path d="M499.506+803.294L506.666+803.273L506.543+760.313L499.383+760.334L499.506+803.294Z" fill="#ffffff"/>
</g>
</g>
</g>
</svg>
